<?xml version="1.0" encoding="UTF-8"?>
<!DOCTYPE svg PUBLIC "-//W3C//DTD SVG 1.1//EN" "http://www.w3.org/Graphics/SVG/1.1/DTD/svg11.dtd">
<!-- Creator: CorelDRAW 2020 (64 Bit) -->
<svg xmlns="http://www.w3.org/2000/svg" xml:space="preserve" width="4.0636mm" height="4.0639mm" version="1.1" style="shape-rendering:geometricPrecision; text-rendering:geometricPrecision; image-rendering:optimizeQuality; fill-rule:evenodd; clip-rule:evenodd"
viewBox="0 0 6.13 6.13"
 xmlns:xlink="http://www.w3.org/1999/xlink"
 xmlns:xodm="http://www.corel.com/coreldraw/odm/2003">
 <defs>
  <style type="text/css">
   <![CDATA[
    .fil3 {fill:black}
    .fil2 {fill:#FFCC00}
    .fil0 {fill:white}
    .fil1 {fill:black;fill-rule:nonzero}
   ]]>
  </style>
 </defs>
 <g id="Camada_x0020_1">
  <metadata id="CorelCorpID_0Corel-Layer"/>
  <g id="_1917092082608">
   <ellipse class="fil0" cx="3.32" cy="3.06" rx="2.24" ry="2.23"/>
   <path class="fil1" d="M3.32 0.7c0.65,0 1.25,0.26 1.67,0.69 0.43,0.43 0.69,1.02 0.69,1.67 0,0.65 -0.26,1.25 -0.69,1.67 -0.43,0.43 -1.02,0.69 -1.67,0.69 -0.65,0 -1.25,-0.26 -1.67,-0.69 -0.43,-0.43 -0.69,-1.02 -0.69,-1.67 0,-0.65 0.26,-1.24 0.69,-1.67 0.43,-0.43 1.02,-0.69 1.67,-0.69zm1.49 0.88c-0.38,-0.38 -0.91,-0.62 -1.49,-0.62 -0.58,0 -1.11,0.24 -1.49,0.62 -0.38,0.38 -0.62,0.91 -0.62,1.49 0,0.58 0.24,1.11 0.62,1.49 0.38,0.38 0.91,0.62 1.49,0.62 0.58,0 1.11,-0.24 1.49,-0.62 0.38,-0.38 0.62,-0.91 0.62,-1.49 0,-0.58 -0.24,-1.11 -0.62,-1.49z"/>
   <path class="fil2" d="M6.12 3.2c0,0.02 -0.02,-0.29 -0.04,-0.41 -0.17,-1.36 -1.34,-2.41 -2.75,-2.41 -1.32,0 -2.43,0.91 -2.71,2.14 0.14,0.07 0.23,0.21 0.23,0.37l0 0.49c0,0.16 -0.09,0.3 -0.22,0.37 0.25,1.04 1.09,1.84 2.16,2.05 0.04,-0.07 0.12,-0.12 0.2,-0.12l0.37 0c0.13,0 0.23,0.1 0.23,0.23l0 0c0,0.12 -0.1,0.23 -0.23,0.23l-0.37 0c-0.11,0 -0.21,-0.08 -0.23,-0.19 -1.2,-0.16 -2.17,-1.02 -2.48,-2.16 -0.16,-0.06 -0.27,-0.21 -0.27,-0.39l0 -0.49c0,-0.15 0.08,-0.28 0.2,-0.36 0.22,-1.43 1.45,-2.53 2.95,-2.53 1.57,0 2.86,1.21 2.97,2.75 0.01,0.17 -0.01,0.29 -0.01,0.45z"/>
   <polygon class="fil3" points="1.96,1.71 2.66,1.71 3.32,2.59 3.97,1.71 4.67,1.71 3.67,3.06 4.67,4.42 3.97,4.42 3.32,3.54 2.66,4.42 1.96,4.42 2.97,3.06 "/>
  </g>
 </g>
</svg>
